# xmcd
#
# Track frame offsets:
#	150
#	17716
#	34722
#	55552
#	74213
#	94730
#	110504
#	127804
#	142646
#	158468
#	178952
#	192912
#	206432
#	221373
#	241965
#
# Disc length: 3416 seconds
#
# Revision: 0
# Processed by: cddbd v1.5.2PL0 Copyright (c) Steve Scherf et al.
# Submitted via: EasyCDDAExtractor 11.1.0.1
#
DISCID=c70d560f
DTITLE=Bosák Jiří - Pivní pěna - Lidovky F-K [CD2)
DYEAR=207
DGENRE=Country
TTITLE0=Fláma
TTITLE1=Hajá, hajá
TTITLE2=Hájku, háječku
TTITLE3=Hledám galánečku
TTITLE4=Hospůdka
TTITLE5=Houpy, hou
TTITLE6=Hvězdičky, hvězdičky
TTITLE7=Chaloupky pod horama
TTITLE8=Já jsem ten synáček
TTITLE9=Jarní vody
TTITLE10=Jiřiny
TTITLE11=Kdyby byl Bavorov
TTITLE12=Kdybych byla ptáčkem
TTITLE13=Když jsem já chodíval
TTITLE14=Když jsem šel na Perštát
EXTD=
EXTT0=
EXTT1=
EXTT2=
EXTT3=
EXTT4=
EXTT5=
EXTT6=
EXTT7=
EXTT8=
EXTT9=
EXTT10=
EXTT11=
EXTT12=
EXTT13=
EXTT14=
PLAYORDER=
